# xmcd
#
# Track frame offsets:
#	150
#	15846
#	38365
#	54013
#	68802
#
# Disc length: 1724 seconds
# Revision: 0
# Processed by: cddbd v1.5.2PL0 Copyright (c) Steve Scherf et al.
# Submitted via: dBpowerAMP V12.0
#
DISCID=2706ba05
DTITLE=Corinne Bailey Rae - The Love EP
DYEAR=2010
DGENRE=Pop
TTITLE0=I Wanna Be Your Lover
TTITLE1=Low Red Moon
TTITLE2=Is This Love
TTITLE3=My Love
TTITLE4=Que Sera Sera (Live)
EXTD=
EXTT0=
EXTT1=
EXTT2=
EXTT3=
EXTT4=
PLAYORDER=
